<?xml version="1.0" standalone="no"?>
<!DOCTYPE svg PUBLIC "-//W3C//DTD SVG 20010904//EN"
 "http://www.w3.org/TR/2001/REC-SVG-20010904/DTD/svg10.dtd">
<svg version="1.0" xmlns="http://www.w3.org/2000/svg"
 width="300.000000pt" height="300.000000pt" viewBox="0 0 300.000000 300.000000"
 preserveAspectRatio="xMidYMid meet">
<metadata>
Created by potrace 1.10, written by Peter Selinger 2001-2011
</metadata>
<g transform="translate(0.000000,300.000000) scale(0.100000,-0.100000)"
fill="#000000" stroke="none">
<path d="M603 2415 l-23 -16 0 -499 c0 -440 2 -500 16 -514 21 -21 47 -20 67
2 15 17 17 64 17 475 l0 457 724 0 724 0 53 -28 c152 -79 196 -285 88 -415
-46 -56 -87 -78 -244 -131 -77 -27 -277 -95 -445 -153 -168 -58 -434 -149
-592 -203 -282 -96 -319 -113 -359 -164 -46 -58 -49 -81 -49 -360 l0 -266 24
-15 c21 -14 99 -16 708 -13 674 3 684 4 749 26 293 98 440 410 330 702 -60
158 -267 330 -321 265 -23 -27 -3 -59 65 -103 182 -120 246 -362 148 -556 -34
-67 -126 -157 -193 -188 -96 -46 -136 -48 -792 -48 l-618 0 0 226 c0 208 2
229 20 259 11 17 32 37 47 44 16 7 172 62 348 123 176 60 383 132 460 158 77
27 235 81 350 120 351 119 360 123 429 200 63 70 89 140 90 240 2 173 -81 295
-244 362 l-55 23 -750 3 c-671 2 -752 1 -772 -13z"/>
<path d="M1134 2089 c-49 -12 -115 -65 -138 -113 -20 -42 -21 -135 -2 -180 28
-68 116 -125 192 -126 58 0 142 45 177 96 21 30 30 57 34 100 12 145 -119 256
-263 223z m106 -104 c41 -21 64 -68 57 -118 -8 -55 -43 -88 -101 -94 -42 -5
-48 -3 -80 29 -44 44 -54 80 -32 124 17 38 69 74 104 74 13 0 36 -7 52 -15z"/>
<path d="M1678 1320 c-51 -15 -98 -51 -123 -95 -74 -125 -13 -278 125 -315
146 -39 290 92 264 238 -22 123 -152 207 -266 172z m133 -126 c37 -35 46 -82
25 -126 -40 -85 -159 -89 -201 -8 -59 115 83 223 176 134z"/>
</g>
</svg>
