<?xml version="1.0" standalone="no"?>
<!DOCTYPE svg PUBLIC "-//W3C//DTD SVG 20010904//EN"
 "http://www.w3.org/TR/2001/REC-SVG-20010904/DTD/svg10.dtd">
<svg version="1.0" xmlns="http://www.w3.org/2000/svg"
 width="300.000000pt" height="300.000000pt" viewBox="0 0 300.000000 300.000000"
 preserveAspectRatio="xMidYMid meet">
<metadata>
Created by potrace 1.10, written by Peter Selinger 2001-2011
</metadata>
<g transform="translate(0.000000,300.000000) scale(0.050000,-0.050000)"
fill="#000000" stroke="none">
<path d="M1581 4857 c-1747 -250 -2146 -2677 -577 -3515 572 -307 1536 -293
1536 22 0 142 -93 174 -358 124 -950 -180 -1826 540 -1830 1502 -5 1230 1349
1970 2379 1300 114 -74 1225 -1155 1315 -1279 129 -179 -18 -451 -245 -451
-111 0 -178 55 -709 585 -604 604 -635 625 -902 625 -461 0 -764 -478 -565
-890 66 -136 1225 -1300 1432 -1439 1253 -839 2926 52 2929 1559 2 1146 -1022
2035 -2146 1862 -307 -47 -380 -91 -380 -227 0 -145 85 -175 347 -125 1170
224 2139 -876 1763 -2002 -330 -992 -1559 -1368 -2390 -732 -310 237 -1255
1226 -1270 1329 -31 208 158 378 363 326 36 -9 252 -207 606 -558 593 -584
645 -624 857 -646 493 -51 847 451 634 900 -60 128 -1225 1297 -1427 1432
-396 265 -868 368 -1362 298z"/>
</g>
</svg>
