<?xml version="1.0" encoding="utf-8"?>
<!-- Svg Vector Icons : http://www.onlinewebfonts.com/icon -->
<!DOCTYPE svg PUBLIC "-//W3C//DTD SVG 1.1//EN" "http://www.w3.org/Graphics/SVG/1.1/DTD/svg11.dtd">
<svg version="1.1" xmlns="http://www.w3.org/2000/svg" xmlns:xlink="http://www.w3.org/1999/xlink" x="0px" y="0px" viewBox="0 0 256 256" enable-background="new 0 0 256 256" xml:space="preserve">
<metadata> Svg Vector Icons : http://www.onlinewebfonts.com/icon </metadata>
<g><g><path fill="#000000" d="M223.1,177.3c-17.1,34.6-52.8,58.4-94,58.4c-41.2,0-76.9-23.8-94-58.4H17.3c18.2,43.8,61.4,74.6,111.8,74.6s93.6-30.8,111.8-74.6H223.1L223.1,177.3z M223.1,78.7c-17.1-34.6-52.8-58.4-94-58.4c-41.2,0-76.9,23.8-94,58.4H17.3C35.5,34.9,78.7,4.1,129.1,4.1s93.6,30.8,111.8,74.6H223.1L223.1,78.7z M80.6,112.2L63.8,116c-2.4-8-7.7-12.2-16.2-12.6c-11.9,0.7-18.3,9-19,24.9c0.7,15.9,7,24.5,19,25.6c9.6-0.2,15.2-6,16.8-17.2l16.8,5.3c-4,17.3-15.2,26-33.7,26c-23.9-1.2-36.4-14.4-37.6-39.7c1.2-25.3,13.7-38.6,37.6-40C64.5,89,75.5,97,80.6,112.2L80.6,112.2z M158.6,166.6h-22.1l-19-29.8h-10.2v30.2H89.7V89.4h35.5c19,0.5,28.8,8.2,29.5,23.2c0.2,12.9-6.1,20.6-19,23.2L158.6,166.6L158.6,166.6z M122.4,103h-15.1v20.7h15.1c9.4,0,13.9-3.4,13.7-10.2C136.6,106.3,132,102.8,122.4,103L122.4,103z M246,166.9h-16.8v-46c0-4.9,0.2-10.8,0.7-17.6h-0.4c-0.7,4.7-1.6,9.1-2.8,13.4l-14.4,50.2h-14.7l-14.4-51.6c-0.7-2.8-1.6-6.8-2.8-11.9H180c0,1.4,0.1,3.4,0.4,6c0.2,7,0.4,12.1,0.4,15.1v42.5h-16.5V89.4h26l13.7,50.9c0.2,1.4,0.6,4.2,1.1,8.4c0-0.7,0.1-1.6,0.4-2.8c0-3,0.2-4.9,0.7-5.6l13.7-50.9H246V166.9L246,166.9z"/></g></g>
</svg>