<?xml version="1.0" standalone="no"?>
<!DOCTYPE svg PUBLIC "-//W3C//DTD SVG 20010904//EN"
 "http://www.w3.org/TR/2001/REC-SVG-20010904/DTD/svg10.dtd">
<svg version="1.0" xmlns="http://www.w3.org/2000/svg"
 width="300.000000pt" height="282.000000pt" viewBox="0 0 300.000000 282.000000"
 preserveAspectRatio="xMidYMid meet">
<metadata>
Created by potrace 1.10, written by Peter Selinger 2001-2011
</metadata>
<g transform="translate(0.000000,282.000000) scale(0.100000,-0.100000)"
fill="#000000" stroke="none">
<path d="M775 2557 c-91 -30 -157 -88 -197 -172 l-28 -60 0 -450 0 -450 -185
-335 c-189 -343 -200 -367 -174 -423 17 -37 62 -57 154 -68 105 -12 240 3 340
36 l70 23 80 -77 c69 -68 181 -151 218 -164 7 -2 3 -13 -11 -32 -26 -33 -29
-92 -7 -135 26 -50 59 -60 200 -60 151 0 177 10 206 76 19 41 22 44 59 44 37
0 40 -3 59 -44 29 -66 55 -76 206 -76 141 0 174 10 200 60 22 42 19 102 -6
134 -12 15 -20 28 -18 29 72 41 190 132 239 182 59 62 65 66 88 55 64 -29 190
-50 297 -49 148 0 193 10 227 48 52 58 48 71 -154 436 l-183 330 -5 460 -5
460 -24 49 c-33 66 -91 122 -160 154 -45 21 -70 26 -131 26 -67 -1 -89 -7
-213 -57 -230 -94 -296 -112 -417 -112 -117 1 -182 18 -430 117 -138 55 -224
68 -295 45z m344 -473 c71 -21 141 -90 166 -163 14 -42 16 -78 13 -184 -4
-144 -12 -172 -72 -235 -52 -56 -101 -76 -186 -77 -86 0 -132 18 -188 73 -60
61 -72 100 -72 251 0 157 10 196 63 257 76 87 164 112 276 78z m917 1 c64 -19
113 -60 149 -126 27 -50 30 -63 33 -175 3 -90 0 -136 -12 -175 -30 -104 -118
-177 -225 -186 -111 -10 -207 42 -255 139 -24 49 -26 61 -26 197 0 163 10 200
70 259 74 75 165 97 266 67z m-468 -440 c43 -19 79 -50 98 -87 25 -49 20 -54
-80 -72 -51 -9 -100 -14 -107 -12 -8 3 -47 10 -86 16 -63 10 -73 15 -73 32 0
38 39 86 92 112 59 30 103 33 156 11z m-109 -201 c31 -4 81 -2 111 4 30 6 56
9 58 7 9 -9 -33 -68 -61 -85 -62 -38 -148 -15 -182 49 -19 38 -19 45 2 37 9
-4 41 -9 72 -12z m-33 -475 c3 -6 -2 -23 -13 -37 -50 -68 -116 -87 -185 -53
-43 21 -85 72 -73 91 9 14 262 13 271 -1z m414 -13 c0 -30 -57 -81 -99 -91
-59 -13 -124 13 -156 62 -31 47 -18 53 125 53 l130 0 0 -24z m-204 -187 c3 -6
-2 -23 -13 -37 -66 -89 -184 -93 -247 -9 -37 49 -21 57 123 57 84 0 132 -4
137 -11z"/>
<path d="M1044 1944 c-9 -4 -8 -13 3 -35 25 -51 -10 -109 -66 -109 -19 0 -21
-6 -21 -70 0 -86 16 -121 66 -145 52 -25 101 -15 142 30 l32 35 0 110 0 110
-33 36 c-24 26 -42 36 -72 39 -22 3 -45 2 -51 -1z"/>
<path d="M1873 1942 c-10 -6 -10 -15 -1 -39 16 -43 -1 -80 -47 -99 -34 -14
-35 -16 -35 -69 0 -31 6 -71 14 -90 17 -40 68 -75 111 -75 43 0 94 35 111 75
8 20 14 67 14 115 0 97 -17 142 -62 170 -34 20 -83 26 -105 12z"/>
</g>
</svg>
