<svg xmlns="http://www.w3.org/2000/svg" xmlns:xlink="http://www.w3.org/1999/xlink" viewBox="0,0,256,256" width="48px" height="48px" fill-rule="nonzero"><g fill="none" fill-rule="nonzero" stroke="none" stroke-width="1" stroke-linecap="butt" stroke-linejoin="miter" stroke-miterlimit="10" stroke-dasharray="" stroke-dashoffset="0" font-family="none" font-weight="none" font-size="none" text-anchor="none" style="mix-blend-mode: normal"><g transform="scale(5.33333,5.33333)"><path d="M42,37c0,2.762 -2.238,5 -5,5h-26c-2.761,0 -5,-2.238 -5,-5v-26c0,-2.762 2.239,-5 5,-5h26c2.762,0 5,2.238 5,5z" fill="#1f2021"></path><path d="M38,20v0.556c-0.591,-0.344 -1.268,-0.556 -2,-0.556c-0.732,0 -1.409,0.212 -2,0.556v-4.556h-2v4.556c-0.591,-0.344 -1.268,-0.556 -2,-0.556c-1.2,0 -2.266,0.542 -3,1.382c-0.734,-0.84 -1.8,-1.382 -3,-1.382c-1.2,0 -2.266,0.542 -3,1.382c-0.734,-0.84 -1.8,-1.382 -3,-1.382c-1.125,0 -2.139,0.47 -2.866,1.22c-0.643,-0.741 -1.579,-1.22 -2.634,-1.22c-0.539,0 -1.044,0.133 -1.5,0.351v-2.351h-2v10h2v-4.5c0,-0.827 0.673,-1.5 1.5,-1.5c0.827,0 1.5,0.673 1.5,1.5h0.051c-0.021,0.166 -0.051,0.329 -0.051,0.5v4h2v-0.556c0.591,0.344 1.268,0.556 2,0.556c1.2,0 2.266,-0.542 3,-1.382c0.734,0.84 1.8,1.382 3,1.382c0.732,0 1.409,-0.212 2,-0.556v2.556h2v-2.556c0.591,0.344 1.268,0.556 2,0.556c0.732,0 1.409,-0.212 2,-0.556v0.556h2v-0.556c0.591,0.344 1.268,0.556 2,0.556c0.732,0 1.409,-0.212 2,-0.556v0.556h2v-8zM18,26c-1.103,0 -2,-0.897 -2,-2c0,-1.103 0.897,-2 2,-2c1.103,0 2,0.897 2,2c0,1.103 -0.897,2 -2,2zM24,26c-1.103,0 -2,-0.897 -2,-2c0,-1.103 0.897,-2 2,-2c1.103,0 2,0.897 2,2c0,1.103 -0.897,2 -2,2zM30,26c-1.103,0 -2,-0.897 -2,-2c0,-1.103 0.897,-2 2,-2c1.103,0 2,0.897 2,2c0,1.103 -0.897,2 -2,2zM36,26c-1.103,0 -2,-0.897 -2,-2c0,-1.103 0.897,-2 2,-2c1.103,0 2,0.897 2,2c0,1.103 -0.897,2 -2,2z" fill="#ffffff"></path></g></g></svg>