<svg xmlns="http://www.w3.org/2000/svg"  viewBox="0 0 30 30" width="120px" height="120px"><path d="M26,6.44v17.12c0,1.13-0.78,2.09-1.83,2.36H24v-4.58c0-0.8-0.76-1.37-1.52-1.16L16,21.65v4.27h-2v-4.27l-6.48-1.47	C6.76,19.97,6,20.54,6,21.34v4.58H5.83C4.78,25.65,4,24.69,4,23.56V6.44C4,5.09,5.09,4,6.44,4h17.12C24.91,4,26,5.09,26,6.44z M18.5,12.1L17,11.5v2.33c1.08,0.23,2.1,0.66,3,1.24V11.5L18.5,12.1z M15,15.61c-2.34,0-4.42,1.09-5.75,2.8	c1.38,0.35,3.26,0.96,5.14,1.58h1.22c1.88-0.62,3.76-1.23,5.14-1.58C19.42,16.7,17.34,15.61,15,15.61z"/></svg>