<?xml version="1.0" standalone="no"?>
<!DOCTYPE svg PUBLIC "-//W3C//DTD SVG 20010904//EN"
 "http://www.w3.org/TR/2001/REC-SVG-20010904/DTD/svg10.dtd">
<svg version="1.0" xmlns="http://www.w3.org/2000/svg"
 width="300.000000pt" height="300.000000pt" viewBox="0 0 300.000000 300.000000"
 preserveAspectRatio="xMidYMid meet">
<metadata>
Created by potrace 1.10, written by Peter Selinger 2001-2011
</metadata>
<g transform="translate(0.000000,300.000000) scale(0.100000,-0.100000)"
fill="#000000" stroke="none">
<path d="M847 2610 c-110 -28 -201 -103 -250 -208 -28 -59 -32 -77 -32 -152 0
-99 16 -140 108 -283 37 -57 53 -89 44 -92 -6 -2 -75 -6 -152 -7 -128 -3 -145
-5 -197 -30 -109 -51 -188 -158 -208 -283 -22 -137 50 -293 167 -362 78 -46
122 -56 265 -62 l136 -6 -55 -85 c-91 -139 -108 -181 -108 -280 0 -75 4 -93
32 -152 39 -82 100 -145 179 -184 53 -26 69 -29 154 -29 87 0 101 3 161 32 37
18 84 52 106 75 21 24 96 134 167 246 71 111 132 202 136 202 5 0 69 -96 143
-212 145 -228 181 -270 267 -314 50 -27 64 -29 160 -29 94 0 111 3 161 28 70
34 142 109 177 185 23 49 27 70 27 147 0 104 -14 142 -107 286 l-56 87 142 4
c133 4 146 6 208 35 36 17 83 47 105 67 51 46 98 135 112 212 28 154 -58 318
-207 391 -53 26 -66 28 -204 31 -82 2 -148 6 -148 10 0 4 29 54 65 112 95 152
115 240 79 360 -78 263 -402 353 -601 166 -31 -28 -99 -124 -183 -255 -73
-116 -136 -211 -139 -210 -3 0 -67 97 -141 215 -148 237 -195 289 -290 325
-62 24 -167 33 -223 19z m184 -167 c43 -23 63 -42 101 -98 48 -71 458 -712
510 -796 l28 -47 -146 -228 c-80 -126 -205 -321 -277 -434 -147 -231 -166
-255 -222 -281 -130 -60 -290 27 -311 169 -11 70 11 118 155 342 l131 205
-268 5 -269 5 -49 30 c-124 77 -145 242 -43 344 61 62 77 65 366 71 l262 5
-135 210 c-74 116 -139 226 -144 245 -22 78 -4 146 53 207 73 76 165 93 258
46z m1105 12 c57 -17 115 -70 139 -127 17 -43 20 -114 5 -153 -6 -15 -69 -119
-141 -231 -72 -113 -129 -207 -126 -210 3 -3 103 -5 224 -4 236 1 309 -8 360
-43 134 -90 126 -291 -14 -374 l-48 -28 -267 -5 -267 -5 131 -205 c148 -232
158 -251 158 -315 0 -120 -96 -216 -215 -216 -58 0 -118 21 -153 54 -13 12
-93 131 -178 265 l-155 242 126 196 c69 108 127 200 128 204 1 3 -54 94 -122
201 -68 107 -124 199 -124 204 -1 18 284 459 322 498 34 36 98 65 147 66 11 1
43 -6 70 -14z"/>
</g>
</svg>
