<?xml version="1.0" encoding="UTF-8"?>
<svg version="1.1" xmlns="http://www.w3.org/2000/svg" width="512" height="512">
<path d="M0 0 C1.18664246 0.4197258 2.37328491 0.8394516 3.59588623 1.27189636 C6.80549335 2.41035866 10.0095948 3.56234582 13.2120285 4.72071075 C16.58984798 5.93856474 19.974159 7.13810346 23.35791016 8.33935547 C28.84924426 10.29105896 34.3371013 12.25221752 39.82226562 14.22119141 C46.64844969 16.67112955 53.48192691 19.0999278 60.3203125 21.515625 C61.30025681 21.86184402 62.28020111 22.20806305 63.2898407 22.56477356 C65.2258751 23.24874326 67.16192527 23.9326683 69.09799194 24.61654663 C72.92981274 25.971508 76.75988496 27.33137496 80.5900116 28.69111633 C90.35218354 32.15628679 100.12094085 35.60232252 109.89453125 39.03515625 C111.71020599 39.67304581 111.71020599 39.67304581 113.56256104 40.32382202 C119.42757469 42.38402971 125.29317936 44.44253133 131.15966797 46.49853516 C136.34336289 48.31656795 141.52330931 50.14489835 146.70025635 51.98205566 C148.6111753 52.65873252 150.52323406 53.33219987 152.4364624 54.00231934 C155.07698988 54.92830263 157.71276496 55.86671309 160.34765625 56.80859375 C161.11535843 57.07487579 161.88306061 57.34115784 162.67402649 57.61550903 C167.45057072 59.34282573 172.18970238 61.21143601 174.5859375 66.00390625 C174.68495891 68.29066474 174.71666582 70.58040901 174.71965027 72.86930847 C174.72191583 73.58418421 174.72418138 74.29905994 174.72651559 75.03559858 C174.73287306 77.44456562 174.73202501 79.85347664 174.73120117 82.26245117 C174.73419231 83.98582533 174.73759473 85.70919881 174.74137878 87.43257141 C174.75024565 92.13273522 174.75255853 96.83288084 174.75319457 101.53305221 C174.75390563 104.48181265 174.75604142 107.43056848 174.75869179 110.37932777 C174.76796669 120.70495521 174.77202558 131.03056971 174.77124023 141.35620117 C174.77064465 150.91003627 174.78108755 160.46381394 174.7969839 170.01763457 C174.81019692 178.2592829 174.81541818 186.50091285 174.81478482 194.74257165 C174.81453305 199.64578117 174.81720019 204.54894012 174.82796288 209.4521389 C174.88538338 237.56791493 174.44837622 265.58049053 170.7734375 293.50390625 C170.64796539 294.47861877 170.64796539 294.47861877 170.5199585 295.47302246 C164.9541518 338.40850641 151.28525528 379.92067847 122.5859375 413.00390625 C121.89113281 413.80957031 121.19632812 414.61523438 120.48046875 415.4453125 C110.98213823 426.22392801 100.89442021 436.13450804 89.5859375 445.00390625 C88.82410156 445.63296875 88.06226563 446.26203125 87.27734375 446.91015625 C64.91652828 465.31163677 39.61252376 480.02121771 14.35113525 494.02374268 C12.58637327 495.00366428 10.82500929 495.98949041 9.06396484 496.97607422 C5.7094264 498.84401202 2.33915395 500.67920767 -1.0390625 502.50390625 C-2.0391333 503.06215088 -3.0392041 503.62039551 -4.06958008 504.19555664 C-10.24516456 507.46609097 -15.42265276 509.57572748 -22.4140625 508.00390625 C-27.16139364 506.17050558 -31.58607739 503.82429203 -36.0390625 501.37890625 C-37.32015901 500.69370434 -38.60190815 500.00972137 -39.88427734 499.3269043 C-64.65200491 486.05685896 -88.67893728 471.52570532 -111.4140625 455.00390625 C-111.98769531 454.59011719 -112.56132812 454.17632812 -113.15234375 453.75 C-119.46485767 449.1851033 -125.4068216 444.38360791 -131.1328125 439.1015625 C-133.10614498 437.28704274 -135.11734158 435.54657923 -137.1640625 433.81640625 C-188.11234424 389.14659964 -204.22726548 326.81871749 -208.61049008 261.3269074 C-209.7866986 243.12656231 -209.7435319 224.90909961 -209.74857664 206.67811537 C-209.75001818 203.74028392 -209.75432348 200.80247009 -209.75957108 197.8646431 C-209.77789602 187.58829851 -209.78625988 177.31200494 -209.78466797 167.03564453 C-209.78345592 157.48800257 -209.80480908 147.94058271 -209.8361553 138.39299715 C-209.86227226 130.1418208 -209.87303792 121.89071763 -209.87175715 113.63950026 C-209.87124823 108.73301926 -209.87689942 103.82673888 -209.89811325 98.92029953 C-209.91743002 94.3316093 -209.91766561 89.74331358 -209.90307999 85.15460968 C-209.90098598 83.47316792 -209.90572792 81.79170169 -209.9178009 80.11030197 C-209.93320935 77.8164252 -209.9239779 75.52391869 -209.90853882 73.23007202 C-209.90962835 71.94756247 -209.91071789 70.66505291 -209.91184044 69.34367943 C-209.32492648 65.40586031 -208.21445322 63.78381635 -205.4140625 61.00390625 C-202.40234375 59.51293945 -202.40234375 59.51293945 -198.7265625 58.2421875 C-197.6914856 57.87629265 -197.6914856 57.87629265 -196.63549805 57.50300598 C-195.08490523 56.95679256 -193.53175377 56.4178063 -191.9765625 55.88482666 C-189.2512894 54.94794912 -186.5354421 53.9868623 -183.8203125 53.02099609 C-178.51098207 51.13512011 -173.19546518 49.26738556 -167.87792969 47.40478516 C-161.86788036 45.29948877 -155.85983868 43.18847528 -149.8515625 41.078125 C-148.63162598 40.64978363 -147.41168945 40.22144226 -146.15478516 39.78012085 C-134.56678196 35.70989459 -122.98936898 31.61007299 -111.4140625 27.50390625 C-91.3348038 20.38224047 -71.24000331 13.30520922 -51.13867188 6.24609375 C-50.0370723 5.85899734 -48.93547272 5.47190094 -47.80049133 5.07307434 C-45.75655369 4.35485792 -43.71245018 3.63711328 -41.6681366 2.91996765 C-40.27719536 2.43110832 -40.27719536 2.43110832 -38.8581543 1.93237305 C-37.50516739 1.46207169 -37.50516739 1.46207169 -36.12484741 0.98226929 C-34.2776986 0.3156055 -32.44443026 -0.39051917 -30.62539673 -1.13046265 C-19.22910824 -5.6805651 -11.33025743 -4.14375849 0 0 Z M-64.4140625 120.00390625 C-65.12046875 120.54660156 -65.826875 121.08929688 -66.5546875 121.6484375 C-80.4324139 132.87628307 -89.20173608 150.3929118 -91.4140625 168.00390625 C-91.82724952 175.00086976 -91.67953608 182.00357204 -91.4140625 189.00390625 C-92.02531982 189.05579102 -92.63657715 189.10767578 -93.26635742 189.16113281 C-94.07177979 189.2381543 -94.87720215 189.31517578 -95.70703125 189.39453125 C-96.50391357 189.46704102 -97.3007959 189.53955078 -98.12182617 189.61425781 C-102.74379579 190.39992865 -105.57872767 193.09896018 -108.6640625 196.44140625 C-113.67779347 203.78294089 -113.56339564 211.69291524 -113.55932617 220.27270508 C-113.56268478 221.29300308 -113.5660434 222.31330109 -113.56950378 223.36451721 C-113.57898527 226.7300031 -113.58095551 230.09543909 -113.58203125 233.4609375 C-113.58524585 235.80734782 -113.58861007 238.15375794 -113.59211731 240.50016785 C-113.59810162 245.41686467 -113.59995793 250.33354393 -113.59936523 255.25024414 C-113.59926367 261.53805785 -113.61291332 267.82575849 -113.63013744 274.11354542 C-113.64127786 278.95981866 -113.64328381 283.80606474 -113.64275551 288.65234947 C-113.64393264 290.96989011 -113.64833939 293.28743151 -113.65608788 295.60495949 C-113.66592857 298.85236057 -113.66299351 302.0995185 -113.65698242 305.34692383 C-113.66260193 306.29631836 -113.66822144 307.24571289 -113.67401123 308.22387695 C-113.63723503 316.07627906 -113.32806109 323.85441775 -107.7890625 329.87890625 C-107.15742188 330.59820312 -106.52578125 331.3175 -105.875 332.05859375 C-98.23578512 338.09721123 -89.5929763 337.43374578 -80.3125 337.39208984 C-78.78737005 337.39616005 -77.26224305 337.40150444 -75.73712158 337.40802002 C-71.61314859 337.42164612 -67.48940184 337.41641453 -63.36542511 337.40688276 C-59.03967196 337.39926169 -54.71393755 337.40633856 -50.38818359 337.41104126 C-43.12529032 337.4164917 -35.86248871 337.40932591 -28.59960938 337.39501953 C-20.21529735 337.37869437 -11.83120423 337.38398339 -3.44689751 337.40049875 C3.76523773 337.41413393 10.97730725 337.41602335 18.18945122 337.40818274 C22.49102234 337.40351738 26.79249074 337.40284997 31.09405518 337.41279221 C35.13907312 337.42148924 39.18381016 337.41539031 43.22879791 337.39810944 C44.70899236 337.39415915 46.18921064 337.39525354 47.66939545 337.40189743 C60.1545963 337.54938109 60.1545963 337.54938109 71.046875 332.05859375 C71.67851562 331.33929688 72.31015625 330.62 72.9609375 329.87890625 C73.60804688 329.17507813 74.25515625 328.47125 74.921875 327.74609375 C79.00809692 321.01246044 78.87756981 313.0582816 78.84472656 305.39453125 C78.8482312 304.37379517 78.85173584 303.35305908 78.85534668 302.3013916 C78.86409585 298.95215911 78.85833893 295.60314061 78.8515625 292.25390625 C78.85291111 289.91178344 78.85485327 287.56966091 78.85736084 285.22753906 C78.86030288 280.32874882 78.85604404 275.43003171 78.84667969 270.53125 C78.8352858 264.26705096 78.84185019 258.00302333 78.85382462 251.73883057 C78.86106804 246.90542317 78.85874387 242.0720561 78.85356903 237.23864746 C78.8522394 234.92948384 78.85385607 232.6203165 78.85852814 230.31115723 C78.86363418 227.07843392 78.85582586 223.84598429 78.84472656 220.61328125 C78.85079926 219.19625916 78.85079926 219.19625916 78.85699463 217.75061035 C78.8035076 209.29774984 78.08070305 201.75461822 72.5859375 195.00390625 C67.44313951 190.25670811 63.5027507 188.88973602 56.5859375 189.00390625 C56.60688477 188.45154297 56.62783203 187.89917969 56.64941406 187.33007812 C57.41696382 163.87608945 52.81458491 143.59723997 36.50390625 125.91015625 C22.2976063 111.34547336 3.26803976 103.40406793 -16.9140625 102.75390625 C-34.81933133 102.97941341 -50.48170948 108.71160102 -64.4140625 120.00390625 Z " fill="#000000" transform="translate(273.4140625,3.99609375)"/>
<path d="M0 0 C8.34714302 4.96709526 12.73372788 11.45124504 15.69140625 20.6015625 C15.69140625 26.8715625 15.69140625 33.1415625 15.69140625 39.6015625 C-5.42859375 39.6015625 -26.54859375 39.6015625 -48.30859375 39.6015625 C-48.30859375 15.17911164 -48.30859375 15.17911164 -39.18359375 4.6640625 C-28.16992107 -5.16871311 -13.02984297 -6.21129665 0 0 Z " fill="#000000" transform="translate(272.30859375,152.3984375)"/>
<path d="M0 0 C5.99508723 5.04132335 9.53981496 10.39814956 10.3125 18.125 C9.90393984 23.191146 8.62857446 27.6284136 6 32 C4.45892578 33.11181641 4.45892578 33.11181641 2.88671875 34.24609375 C-0.27053545 37.25134509 -0.27053545 37.25134509 -0.62890625 41.21484375 C-0.63550458 42.78920429 -0.61259756 44.3639229 -0.5625 45.9375 C-0.32461849 54.72469872 -0.32461849 54.72469872 -3.40234375 58.50390625 C-6.92162574 61.88559225 -8.97870981 62.39519155 -13.89453125 62.359375 C-17.61593453 61.72418186 -19.40312849 59.66020984 -22 57 C-23.9122962 53.17540759 -23.20344267 48.00351548 -23.16601562 43.74023438 C-23.20085083 39.26099814 -23.20085083 39.26099814 -25.30566406 35.48242188 C-26.83887811 34.28023202 -28.41889778 33.13847335 -30 32 C-33.15556303 26.75197806 -34.79231803 21.11216768 -34 15 C-32.22001267 7.8800507 -28.8579247 4.09969978 -22.9375 -0.25 C-15.64069078 -4.59703528 -7.36855671 -3.96158963 0 0 Z " fill="#000000" transform="translate(268,237)"/>
</svg>
