<?xml version="1.0" encoding="utf-8"?>
<!-- Generator: Adobe Illustrator 23.0.1, SVG Export Plug-In . SVG Version: 6.00 Build 0)  -->
<svg version="1.1" id="Layer_1" xmlns="http://www.w3.org/2000/svg" xmlns:xlink="http://www.w3.org/1999/xlink" x="0px" y="0px"
	 viewBox="0 0 1024 1024" style="enable-background:new 0 0 1024 1024;" xml:space="preserve">
<style type="text/css">
	.st0{fill:#FFFFFF;}
</style>
<rect class="st0" width="1024" height="1024"/>
<g>
	<g>
		<g>
			<path d="M396.64,140.28c11.77,0,21.31-9.54,21.31-21.31V21.31C417.95,9.54,408.41,0,396.64,0c-11.77,0-21.31,9.54-21.31,21.31
				v97.66C375.33,130.74,384.87,140.28,396.64,140.28z"/>
		</g>
		<g>
			<path d="M191.09,212.93c4.16,4.16,9.61,6.24,15.07,6.24s10.91-2.08,15.07-6.24c8.32-8.32,8.32-21.82,0-30.14l-69.05-69.04
				c-8.32-8.32-21.82-8.32-30.14,0s-8.32,21.82,0,30.14L191.09,212.93z"/>
		</g>
		<g>
			<path d="M148.57,388.35c0-11.77-9.54-21.31-21.31-21.31H29.61c-11.77,0-21.31,9.54-21.31,21.31c0,11.77,9.54,21.31,21.31,21.31
				h97.65C139.03,409.66,148.57,400.12,148.57,388.35z"/>
		</g>
		<g>
			<path d="M191.09,563.76l-69.05,69.05c-8.32,8.32-8.32,21.82,0,30.14c4.16,4.16,9.62,6.24,15.07,6.24s10.91-2.08,15.07-6.24
				l69.05-69.05c8.32-8.32,8.32-21.82,0-30.14C212.91,555.44,199.41,555.44,191.09,563.76z"/>
		</g>
		<g>
			<path d="M587.13,219.18c5.45,0,10.91-2.08,15.07-6.24l69.05-69.04c8.33-8.32,8.33-21.82,0-30.14s-21.82-8.32-30.14,0
				l-69.05,69.04c-8.33,8.32-8.33,21.82,0,30.14C576.22,217.09,581.67,219.18,587.13,219.18z"/>
		</g>
		<g>
			<path d="M863.05,405.25c-18.76-84.66-94.23-148-184.54-148c-29.06,0-56.55,6.6-81.15,18.31c-7.31-12.99-15.81-25.22-25.41-36.49
				c-42.23-49.55-105.11-80.98-175.32-80.98c-127.17,0-230.25,103.09-230.25,230.25c0,65.7,27.52,124.97,71.66,166.92
				c8.3,7.89,17.22,15.13,26.62,21.72c-16.26,14.23-26.57,35.08-26.57,58.38c0,42.87,34.76,77.63,77.63,77.63h411.19
				c30.58,25.93,70.13,41.59,113.36,41.59c96.89,0,175.44-78.55,175.44-175.44C1015.71,490,949.17,416.43,863.05,405.25z
				 M209.01,388.35c0-103.46,84.17-187.63,187.63-187.63c55.05,0,107.13,24.06,142.88,66c8.34,9.78,15.45,20.41,21.56,31.56
				c-34.08,27.08-58.68,65.58-67.76,109.81c-10.8-2.75-22.05-4.36-33.7-4.36C384.16,403.73,323,464.9,323,540.35
				c0,5.91,0.5,11.69,1.23,17.4h-7.97c-17.73-8.43-34.27-19.52-48.84-33.37C229.75,488.59,209.01,440.28,209.01,388.35z"/>
		</g>
		<g>
			<path d="M712.44,726.06H318.88c-7.88,0-14.27,6.39-14.27,14.27c0,7.88,6.39,14.27,14.27,14.27h393.56
				c7.88,0,14.27-6.39,14.27-14.27C726.72,732.45,720.33,726.06,712.44,726.06z"/>
		</g>
	</g>
	<g>
		<g>
			<path d="M252.55,1024c-3.66,0-7.35-1.13-10.52-3.48c-7.84-5.82-9.49-16.89-3.67-24.73l37.9-51.12
				c5.81-7.84,16.89-9.49,24.73-3.67c7.84,5.82,9.49,16.89,3.67,24.73l-37.9,51.12C263.3,1021.53,257.96,1024,252.55,1024z"/>
		</g>
		<g>
			<path d="M324.69,926.71c-3.66,0-7.35-1.13-10.52-3.48c-7.84-5.82-9.49-16.89-3.67-24.73l62.64-84.49
				c5.81-7.84,16.89-9.49,24.73-3.67c7.84,5.82,9.49,16.89,3.67,24.73l-62.64,84.49C335.44,924.24,330.1,926.71,324.69,926.71z"/>
		</g>
	</g>
	<g>
		<g>
			<path d="M402.47,1024c-3.66,0-7.35-1.13-10.52-3.48c-7.84-5.82-9.49-16.89-3.67-24.73l37.9-51.12
				c5.81-7.84,16.89-9.49,24.73-3.67s9.49,16.89,3.67,24.73l-37.9,51.12C413.21,1021.53,407.87,1024,402.47,1024z"/>
		</g>
		<g>
			<path d="M474.6,926.71c-3.66,0-7.35-1.13-10.52-3.48c-7.84-5.82-9.49-16.89-3.67-24.73l62.64-84.49
				c5.82-7.84,16.89-9.49,24.73-3.67c7.84,5.82,9.49,16.89,3.67,24.73l-62.64,84.49C485.35,924.24,480.01,926.71,474.6,926.71z"/>
		</g>
	</g>
	<g>
		<g>
			<path d="M552.38,1024c-3.66,0-7.35-1.13-10.52-3.48c-7.84-5.82-9.49-16.89-3.67-24.73l37.9-51.12
				c5.82-7.84,16.89-9.49,24.73-3.67c7.84,5.82,9.49,16.89,3.67,24.73l-37.9,51.12C563.12,1021.53,557.78,1024,552.38,1024z"/>
		</g>
		<g>
			<path d="M624.52,926.71c-3.66,0-7.35-1.13-10.52-3.48c-7.84-5.82-9.49-16.89-3.67-24.73l62.64-84.49
				c5.82-7.84,16.89-9.49,24.73-3.67c7.84,5.82,9.49,16.89,3.67,24.73l-62.64,84.49C635.26,924.24,629.92,926.71,624.52,926.71z"/>
		</g>
	</g>
</g>
</svg>
